<svg xmlns="http://www.w3.org/2000/svg" width="26" height="16" viewBox="0 0 26 16" fill="currentColor">
  <path d="M 24.5 16 L 1.5 16 C 0.673 16 0 15.355 0 14.563 L 0 1.438 C 0 0.645 0.673 0 1.5 0 L 24.5 0 C 25.327 0 26 0.645 26 1.438 L 26 14.563 C 26 15.355 25.327 16 24.5 16 Z M 1.5 1 C 1.225 1 1 1.196 1 1.438 L 1 14.563 C 1 14.804 1.225 15 1.5 15 L 24.5 15 C 24.775 15 25 14.804 25 14.563 L 25 1.438 C 25 1.196 24.775 1 24.5 1 L 1.5 1 Z M 16.86 3.603 C 17.03 3.385 16.991 3.071 16.772 2.901 C 16.556 2.73 16.241 2.77 16.071 2.989 L 13 6.938 L 9.929 2.989 C 9.759 2.77 9.443 2.73 9.227 2.901 C 9.009 3.071 8.97 3.385 9.14 3.603 L 12.5 7.924 L 12.5 9.233 L 10.524 9.233 C 10.248 9.233 10.024 9.457 10.024 9.733 C 10.024 10.009 10.248 10.233 10.524 10.233 L 12.5 10.233 L 12.5 12.704 C 12.5 12.98 12.724 13.204 13 13.204 C 13.276 13.204 13.5 12.98 13.5 12.704 L 13.5 10.233 L 15.476 10.233 C 15.752 10.233 15.976 10.009 15.976 9.733 C 15.976 9.457 15.752 9.233 15.476 9.233 L 13.5 9.233 L 13.5 7.924 L 16.86 3.603 Z" fill="currentColor" fill-rule="nonzero"></path>
</svg>