<svg xmlns="http://www.w3.org/2000/svg" width="23.432" height="26" viewBox="0 0 23.432 26" fill="currentColor">
  <path d="M 22.699 7.561 L 15.871 0.731 C 15.399 0.26 14.771 0 14.103 0 L 5.932 0 C 4.553 0 3.432 1.122 3.432 2.5 L 3.432 17.75 C 3.432 18.026 3.655 18.25 3.932 18.25 C 4.208 18.25 4.432 18.026 4.432 17.75 L 4.432 2.5 C 4.432 1.673 5.105 1 5.932 1 L 14.103 1 C 14.238 1 14.369 1.024 14.496 1.058 L 14.432 6.5 C 14.432 7.878 15.553 9 16.932 9 L 22.392 9 C 22.416 9.108 22.432 9.217 22.432 9.328 L 22.432 23.5 C 22.432 24.327 21.759 25 20.932 25 L 10.932 25 C 10.655 25 10.432 25.224 10.432 25.5 C 10.432 25.776 10.655 26 10.932 26 L 20.932 26 C 22.31 26 23.432 24.878 23.432 23.5 L 23.432 9.328 C 23.432 8.661 23.171 8.033 22.699 7.561 Z M 15.432 6.506 L 15.488 1.763 L 21.725 8 L 16.932 8 C 16.105 8 15.432 7.327 15.432 6.506 L 15.432 6.506 Z M 5.527 25.966 C 5.415 25.966 5.303 25.929 5.21 25.852 L 0.183 21.739 C -0.03 21.564 -0.062 21.249 0.113 21.035 C 0.287 20.821 0.602 20.789 0.817 20.965 L 5.473 24.775 L 15.16 13.914 C 15.344 13.707 15.659 13.691 15.866 13.874 C 16.072 14.057 16.09 14.374 15.906 14.58 L 5.9 25.799 C 5.801 25.909 5.665 25.966 5.527 25.966 L 5.527 25.966 Z" fill="currentColor" fill-rule="nonzero"></path>
</svg>