<svg xmlns="http://www.w3.org/2000/svg" width="27.100" height="26" viewBox="0 0 27.100 26" fill="currentColor">
  <path d="M 17.5 0 L 9.328 0 C 8.66 0 8.032 0.26 7.561 0.732 L 0.732 7.561 C 0.26 8.033 0 8.661 0 9.328 L 0 23.5 C 0 24.878 1.121 26 2.5 26 L 7.257 26 C 7.533 26 7.757 25.776 7.757 25.5 C 7.757 25.224 7.533 25 7.257 25 L 2.5 25 C 1.673 25 1 24.327 1 23.5 L 1 9.328 C 1 9.217 1.016 9.108 1.04 9 L 6.5 9 C 7.879 9 9 7.878 9 6.494 L 8.936 1.058 C 9.063 1.024 9.193 1 9.328 1 L 17.5 1 C 18.327 1 19 1.673 19 2.5 L 19 7.499 C 19 7.775 19.224 7.999 19.5 7.999 C 19.776 7.999 20 7.775 20 7.499 L 20 2.5 C 20 1.122 18.879 0 17.5 0 Z M 6.5 8 L 1.707 8 L 7.944 1.763 L 8 6.5 C 8 7.327 7.327 8 6.5 8 L 6.5 8 Z M 27.1 11.977 C 27.1 11.444 26.893 10.943 26.516 10.566 L 24.934 8.984 C 24.156 8.207 22.891 8.207 22.113 8.984 L 9.939 21.158 C 9.656 21.441 9.5 21.818 9.5 22.219 L 9.501 25.5 C 9.501 25.776 9.725 26 10.001 26 L 13.281 26 C 13.682 26 14.058 25.844 14.342 25.56 L 24.898 15.004 L 24.899 15.003 L 24.9 15.002 L 26.516 13.386 C 26.893 13.01 27.1 12.509 27.1 11.976 L 27.1 11.977 Z M 13.635 24.854 C 13.54 24.948 13.415 25 13.281 25 L 10.501 25 L 10.5 22.219 C 10.5 22.088 10.554 21.959 10.646 21.865 L 20.85 11.661 L 23.839 14.65 L 13.635 24.854 L 13.635 24.854 Z M 25.809 12.68 L 24.546 13.943 L 21.557 10.954 L 22.82 9.691 C 23.207 9.305 23.84 9.305 24.226 9.691 L 25.808 11.273 C 25.997 11.461 26.099 11.711 26.099 11.977 C 26.099 12.242 25.997 12.492 25.808 12.68 L 25.809 12.68 Z" fill="currentColor" fill-rule="nonzero"></path>
</svg>