<svg xmlns="http://www.w3.org/2000/svg" width="26" height="26" viewBox="0 0 26 26" fill="currentColor">
  <path d="M 22.215 22.159 C 24.552 19.807 26 16.57 26 13 C 26 9.445 24.563 6.221 22.242 3.871 C 22.223 3.851 22.212 3.827 22.192 3.808 C 22.173 3.788 22.149 3.777 22.129 3.758 C 19.779 1.437 16.555 0 13 0 C 9.43 0 6.193 1.448 3.841 3.785 C 3.831 3.794 3.818 3.798 3.808 3.808 C 3.798 3.818 3.794 3.831 3.785 3.841 C 1.448 6.193 0 9.43 0 13 C 0 16.555 1.437 19.779 3.758 22.128 C 3.777 22.148 3.788 22.173 3.808 22.192 C 3.837 22.222 3.872 22.242 3.902 22.27 C 6.249 24.574 9.459 26 13 26 C 16.57 26 19.807 24.552 22.159 22.215 C 22.169 22.206 22.182 22.202 22.192 22.192 C 22.202 22.183 22.206 22.169 22.215 22.159 L 22.215 22.159 Z M 21.818 21.111 L 17.692 16.985 C 20.362 14.076 22.215 10.515 23.043 6.646 C 23.055 6.59 23.049 6.533 23.058 6.476 C 24.281 8.356 25 10.594 25 13 C 25 16.129 23.787 18.973 21.818 21.111 Z M 4.576 21.533 C 4.539 21.497 4.504 21.462 4.468 21.425 C 3.995 20.919 3.792 20.23 3.935 19.562 C 4.724 15.877 6.487 12.485 9.015 9.722 L 16.278 16.985 C 13.505 19.518 10.118 21.278 6.438 22.065 C 5.77 22.212 5.083 22.006 4.576 21.533 L 4.576 21.533 Z M 9.723 9.016 C 12.497 6.481 15.883 4.722 19.563 3.936 C 19.706 3.904 19.851 3.89 19.995 3.89 C 20.507 3.89 21.003 4.088 21.397 4.442 C 21.442 4.486 21.488 4.53 21.532 4.574 C 22.005 5.082 22.208 5.77 22.065 6.437 C 21.276 10.124 19.514 13.515 16.985 16.278 L 9.723 9.016 L 9.723 9.016 Z M 19.524 2.942 C 19.467 2.951 19.41 2.945 19.354 2.957 C 15.492 3.784 11.938 5.632 9.016 8.309 L 4.889 4.182 C 7.028 2.214 9.871 1 13 1 C 15.406 1 17.644 1.719 19.524 2.942 L 19.524 2.942 Z M 4.182 4.889 L 8.309 9.015 C 5.638 11.925 3.785 15.484 2.957 19.354 C 2.945 19.41 2.951 19.467 2.943 19.524 C 1.719 17.644 1 15.406 1 13 C 1 9.871 2.214 7.027 4.182 4.889 L 4.182 4.889 Z M 6.482 23.061 C 6.537 23.053 6.592 23.056 6.647 23.044 C 10.51 22.216 14.065 20.368 16.985 17.691 L 21.111 21.818 C 18.973 23.786 16.129 25 13 25 C 10.597 25 8.361 24.283 6.482 23.061 L 6.482 23.061 Z" fill="currentColor" fill-rule="nonzero"></path>
</svg>