<svg xmlns="http://www.w3.org/2000/svg" width="27.732" height="22.205" viewBox="0 0 27.732 22.205" fill="currentColor">
  <path d="M 21.641 12.863 L 18.717 5.373 C 18.703 5.311 18.677 5.25 18.64 5.195 C 18.453 4.924 17.995 4.924 17.809 5.195 C 17.768 5.255 17.742 5.321 17.729 5.39 L 14.813 12.863 C 14.713 13.12 14.84 13.41 15.098 13.511 C 15.354 13.61 15.645 13.483 15.745 13.227 L 16.605 11.023 L 19.849 11.023 L 20.709 13.227 C 20.786 13.424 20.975 13.545 21.175 13.545 C 21.235 13.545 21.297 13.534 21.357 13.511 C 21.614 13.41 21.741 13.12 21.641 12.863 L 21.641 12.863 Z M 16.995 10.023 L 18.227 6.866 L 19.459 10.023 L 16.995 10.023 L 16.995 10.023 Z M 13.267 7.159 C 13.267 7.436 13.043 7.659 12.767 7.659 L 11.458 7.659 C 11.259 8.249 10.76 9.425 9.695 10.62 C 10.329 11.187 11.12 11.733 12.124 12.165 C 12.377 12.274 12.495 12.568 12.386 12.821 C 12.304 13.011 12.12 13.124 11.926 13.124 C 11.86 13.124 11.793 13.111 11.728 13.083 C 10.594 12.595 9.702 11.975 8.99 11.331 C 8.275 11.977 7.375 12.593 6.238 13.083 C 6.174 13.111 6.107 13.124 6.041 13.124 C 5.847 13.124 5.663 13.011 5.581 12.822 C 5.472 12.568 5.589 12.274 5.843 12.165 C 6.847 11.732 7.645 11.192 8.28 10.626 C 7.799 10.087 7.436 9.556 7.167 9.091 C 7.029 8.851 7.112 8.545 7.351 8.407 C 7.59 8.27 7.896 8.352 8.033 8.591 C 8.265 8.993 8.578 9.45 8.988 9.915 C 9.749 9.051 10.175 8.207 10.394 7.659 L 5.2 7.659 C 4.924 7.659 4.7 7.435 4.7 7.159 C 4.7 6.883 4.924 6.659 5.2 6.659 L 8.483 6.659 L 8.483 5.477 C 8.483 5.201 8.707 4.977 8.983 4.977 C 9.26 4.977 9.483 5.201 9.483 5.477 L 9.483 6.659 L 12.767 6.659 C 13.043 6.659 13.267 6.883 13.267 7.159 L 13.267 7.159 Z M 26.23 22.205 C 25.941 22.205 25.653 22.119 25.396 21.947 L 21.517 19.352 C 20.933 18.865 20.248 18.615 19.545 18.615 L 3.5 18.615 C 1.57 18.615 0 17.045 0 15.115 L 0 3.5 C 0 1.57 1.57 0 3.5 0 L 23.463 0 C 25.393 0 26.963 1.57 26.963 3.5 L 26.963 16.561 L 27.703 20.413 C 27.82 21.019 27.574 21.607 27.06 21.949 C 26.804 22.119 26.517 22.205 26.23 22.205 L 26.23 22.205 Z M 3.5 1 C 2.122 1 1 2.121 1 3.5 L 1 15.115 C 1 16.494 2.122 17.615 3.5 17.615 L 19.545 17.615 C 20.483 17.615 21.396 17.948 22.116 18.553 L 25.952 21.115 C 26.209 21.288 26.441 21.16 26.507 21.116 C 26.572 21.073 26.78 20.908 26.721 20.604 L 25.991 16.847 C 25.973 16.753 25.963 16.656 25.963 16.561 L 25.963 3.5 C 25.963 2.121 24.842 1 23.463 1 L 3.5 1 L 3.5 1 Z" fill="currentColor" fill-rule="nonzero"></path>
</svg>