<svg xmlns="http://www.w3.org/2000/svg" width="26" height="20.612" viewBox="0 0 26 20.612" fill="currentColor">
  <path d="M 13 17.112 C 10.794 17.112 9 15.318 9 13.112 C 9 10.907 10.794 9.112 13 9.112 C 15.206 9.112 17 10.907 17 13.112 C 17 15.318 15.206 17.112 13 17.112 Z M 13 10.112 C 11.346 10.112 10 11.458 10 13.112 C 10 14.767 11.346 16.112 13 16.112 C 14.654 16.112 16 14.767 16 13.112 C 16 11.458 14.654 10.112 13 10.112 Z M 26 19.237 L 26 6.987 C 26 6.229 25.327 5.612 24.5 5.612 L 15.5 5.612 L 15.5 6.612 L 24.5 6.612 C 24.771 6.612 25 6.784 25 6.987 L 25 19.237 C 25 19.44 24.771 19.612 24.5 19.612 L 1.5 19.612 C 1.229 19.612 1 19.44 1 19.237 L 1 6.987 C 1 6.784 1.229 6.612 1.5 6.612 L 10.5 6.612 L 10.5 5.612 L 1.5 5.612 C 0.673 5.612 0 6.229 0 6.987 L 0 19.237 C 0 19.996 0.673 20.612 1.5 20.612 L 24.5 20.612 C 25.327 20.612 26 19.996 26 19.237 Z M 15.542 3.042 C 15.738 2.847 15.738 2.53 15.542 2.335 L 13.354 0.146 C 13.158 -0.049 12.842 -0.049 12.646 0.146 L 10.458 2.335 C 10.262 2.53 10.262 2.847 10.458 3.042 C 10.653 3.237 10.969 3.237 11.165 3.042 L 13 1.207 L 14.835 3.042 C 14.933 3.14 15.061 3.188 15.189 3.188 C 15.317 3.188 15.445 3.14 15.542 3.042 L 15.542 3.042 Z M 13.5 0.5 L 12.5 0.5 L 12.5 6.612 L 13.5 6.612 L 13.5 0.5 Z" fill="currentColor" fill-rule="nonzero"></path>
</svg>