<svg xmlns="http://www.w3.org/2000/svg" width="24.884" height="25.720" viewBox="0 0 24.884 25.720" fill="currentColor">
  <path d="M 13.883 25.72 C 13.514 25.72 13.144 25.636 12.801 25.469 C 11.517 24.847 9.044 23.454 6.892 21.123 C 6.705 20.92 6.717 20.604 6.92 20.417 C 7.123 20.23 7.439 20.242 7.626 20.445 C 9.667 22.655 12.018 23.978 13.237 24.57 C 13.648 24.769 14.118 24.77 14.53 24.57 C 16.724 23.505 23.884 19.383 23.884 11.078 L 23.884 5.163 C 23.884 4.504 23.461 3.928 22.832 3.731 L 14.332 1.069 C 14.039 0.977 13.729 0.977 13.435 1.069 L 4.936 3.731 C 4.671 3.813 4.392 3.667 4.309 3.404 C 4.226 3.14 4.373 2.86 4.637 2.777 L 13.137 0.115 C 13.626 -0.038 14.142 -0.038 14.63 0.115 L 23.131 2.777 C 24.179 3.105 24.884 4.064 24.884 5.163 L 24.884 11.078 C 24.884 19.964 17.293 24.34 14.967 25.469 C 14.622 25.636 14.253 25.72 13.883 25.72 L 13.883 25.72 Z M 14.384 20.905 L 14.384 3.905 C 14.384 3.629 14.16 3.405 13.884 3.405 C 13.607 3.405 13.384 3.629 13.384 3.905 L 13.384 20.905 C 13.384 21.181 13.607 21.405 13.884 21.405 C 14.16 21.405 14.384 21.181 14.384 20.905 L 14.384 20.905 Z M 10.949 14.77 C 9.645 14.77 8.584 13.709 8.584 12.405 C 8.584 11.101 9.645 10.04 10.949 10.04 L 10.949 9.04 C 9.094 9.04 7.584 10.55 7.584 12.405 C 7.584 14.26 9.094 15.77 10.949 15.77 L 10.949 14.77 Z M 10.949 18.045 L 1.319 18.045 C 1.143 18.045 1 17.925 1 17.778 L 1 7.032 C 1 6.885 1.143 6.765 1.319 6.765 L 10.949 6.765 L 10.949 5.765 L 1.319 5.765 C 0.592 5.765 0 6.334 0 7.032 L 0 17.778 C 0 18.476 0.592 19.045 1.319 19.045 L 10.949 19.045 L 10.949 18.045 Z" fill="currentColor" fill-rule="nonzero"></path>
</svg>