<svg xmlns="http://www.w3.org/2000/svg" width="26" height="26" viewBox="0 0 26 26" fill="currentColor">
  <path d="M 13 26 C 5.832 26 0 20.168 0 13 C 0 5.832 5.832 0 13 0 C 20.168 0 26 5.832 26 13 C 26 20.168 20.168 26 13 26 Z M 13 1 C 6.383 1 1 6.383 1 13 C 1 19.617 6.383 25 13 25 C 19.617 25 25 19.617 25 13 C 25 6.383 19.617 1 13 1 Z M 11.191 17.689 L 19.343 8.994 C 19.532 8.793 19.521 8.477 19.32 8.287 C 19.118 8.099 18.802 8.108 18.613 8.311 L 10.79 16.655 L 7.349 13.678 C 7.141 13.497 6.825 13.52 6.644 13.729 C 6.464 13.938 6.486 14.253 6.695 14.434 L 10.499 17.726 C 10.593 17.808 10.71 17.848 10.826 17.848 C 10.96 17.848 11.093 17.794 11.191 17.69 L 11.191 17.689 Z" fill="currentColor" fill-rule="nonzero"></path>
</svg>